<svg width="114" height="60" viewBox="0 0 114 60" fill="none" xmlns="http://www.w3.org/2000/svg">
<path d="M48.0874 53.1133H47.8208V59.8356H48.0874V53.1133Z" fill="#2D2D2D"/>
<path d="M83.0754 22.1607C83.0754 35.02 74.1196 44.0999 61.3501 44.0999H51.3052V0.0986328H61.3501C74.1196 0.0986328 83.0754 9.17849 83.0754 22.1589V22.1607ZM80.8972 22.1607C80.8972 10.338 72.8484 1.98836 61.4715 1.98836L53.4834 2.0489V42.1478L61.4715 42.2083C72.8484 42.2083 80.8972 33.921 80.8972 22.1589V22.1607Z" fill="#2D2D2D"/>
<path d="M88.7623 22.7093L89.9728 0.0986328H111.336V2.0489H92.151L91.1226 20.0875C93.6044 18.1373 96.9325 16.919 99.8374 16.919C107.886 16.919 113.514 22.5258 113.514 30.5085C113.514 38.4912 107.886 44.5255 99.8374 44.5255C93.3616 44.5255 87.7946 40.1993 86.343 33.9834L88.5213 33.4954C89.6711 38.7371 94.3311 42.4542 99.8374 42.4542C106.615 42.4542 111.336 37.517 111.336 30.5104C111.336 23.5037 106.615 18.9922 99.8374 18.9922C96.8111 18.9922 93.1206 20.6985 90.9423 23.1368L88.7641 22.7111L88.7623 22.7093Z" fill="#2D2D2D"/>
<path d="M1.28597 44.1957L0 34.2536V9.78621L1.28597 0V44.1957Z" fill="#2D2D2D"/>
<path d="M9.86315 44.1957L6.11011 35.026V8.75695L9.86315 0V44.1957Z" fill="#2D2D2D"/>
<path d="M19.4276 44.1957L13.5312 35.7984V8.2414L19.4276 0V44.1957Z" fill="#2D2D2D"/>
<path d="M30.8545 44.1957L22.4929 37.4551V6.74063L30.8545 0V44.1957Z" fill="#2D2D2D"/>
<path d="M43.7377 44.1957L33.2329 39.3815V4.81421L43.7377 0V44.1957Z" fill="#2D2D2D"/>
<path d="M0.609679 53.9082V58.5977H3.11355V58.9334H0.234375V53.9082H0.609679Z" fill="#2D2D2D"/>
<path d="M3.63227 56.422C3.63227 57.9851 4.14923 58.6731 5.49959 58.6731C5.92641 58.6731 6.34035 58.6053 6.72853 58.4713V56.7742H5.34138V56.4385H7.10383V58.697C6.69173 58.8548 5.99448 59.0107 5.48303 59.0107C3.8328 59.0107 3.25513 58.1282 3.25513 56.4238C3.25513 54.7194 3.95238 53.8369 5.33218 53.8369C6.11958 53.8369 6.6439 54.0607 7.03392 54.4717L6.79476 54.7414C6.4121 54.3525 5.98528 54.1727 5.33218 54.1727C4.19891 54.1727 3.63043 54.868 3.63043 56.4238L3.63227 56.422Z" fill="#2D2D2D"/>
<path d="M8.54272 56.7611L8.33667 56.4676C9.27309 55.9594 9.86364 55.2108 9.86364 54.299V54.0421H8.52248V53.7192H11.5304V54.0421H10.2481V54.299C10.2481 55.2108 10.9638 55.9539 11.7457 56.4015L11.5543 56.6877C10.8313 56.2914 10.2868 55.7172 10.0715 55.1136C9.91699 55.6878 9.3706 56.3336 8.54456 56.7611H8.54272ZM9.91331 59.0325C9.91331 59.1279 9.92803 59.1352 10.0163 59.1352H13.2616V59.4728H9.83973C9.6116 59.4728 9.53801 59.3627 9.53801 59.1352V57.3849H9.91331V59.0325ZM13.1144 57.739H12.7318V55.2016H11.4127V54.8567H12.7318V53.3633H13.1144V57.739Z" fill="#2D2D2D"/>
<path d="M14.294 57.8491L14.0732 57.5629C15.0097 56.9226 15.6517 55.9887 15.6517 54.9741V54.099H14.3106V53.7761H17.3038V54.099H16.0362V54.9741C16.0362 55.9667 16.6415 56.8492 17.5779 57.4895L17.3572 57.7757C16.6194 57.2968 16.0068 56.5189 15.8449 55.9594C15.683 56.5189 15.0851 57.3409 14.2958 57.8491H14.294ZM19.6918 55.8273H18.6965V59.5113H18.3138V53.3633H18.6965V55.4805H19.6918V55.8254V55.8273Z" fill="#2D2D2D"/>
<path d="M26.5897 56.194V56.5242H21.1846V56.194H26.5897ZM25.8225 53.7887H24.9744V55.1941H25.8888V55.517H21.8487V55.1941H22.7851V53.7887H21.9076V53.4658H25.8225V53.7887ZM25.7416 58.4965H22.408V59.1662C22.408 59.2469 22.4153 59.2542 22.4816 59.2542H25.8888V59.5845H22.3344C22.1283 59.5845 22.0327 59.5111 22.0327 59.2689V58.1736H25.3663V57.5113H22.0548V57.1884H25.7416V58.4965ZM23.1531 55.1941H24.5991V53.7887H23.1531V55.1941Z" fill="#2D2D2D"/>
<path d="M27.5699 55.9145V57.4226C27.5699 57.518 27.5846 57.5253 27.6729 57.5253H29.0895C29.5991 57.5253 29.9082 57.4593 30.2393 57.3052V53.445H30.5999V55.5549H31.5952V53.3643H31.9631V59.5123H31.5952V55.9016H30.5999V59.3068H30.2393V57.5859C29.9523 57.7547 29.612 57.8501 28.9938 57.8501H27.4963C27.2682 57.8501 27.1946 57.74 27.1946 57.5125V55.5934H28.9129V54.0706H27.2167V53.7477H29.2882V55.9163H27.5699V55.9145Z" fill="#2D2D2D"/>
<path d="M37.2899 53.7744V55.8403C37.2899 56.598 37.2089 57.2823 36.9367 57.9795H38.1969V58.3171H32.7917V57.9795H36.5448C36.7656 57.4566 36.898 56.5888 36.898 55.9724V54.112H33.6527V53.7744H37.288H37.2899Z" fill="#2D2D2D"/>
<path d="M38.9127 56.5263L38.7288 56.2768C39.5842 55.7539 40.2852 55.0347 40.2852 54.1449V53.5339H40.6678V54.1449C40.6678 55.0053 41.3173 55.631 42.1507 56.1373L41.9667 56.3868C41.2878 56.0419 40.6163 55.3649 40.4765 54.9154C40.3367 55.3631 39.6431 56.1502 38.9127 56.5263ZM43.3888 59.5113H40.1141C39.8859 59.5113 39.8124 59.4012 39.8124 59.1737V57.0418H40.1877V57.9463H43.0043V57.0418H43.3869V59.5131L43.3888 59.5113ZM43.0061 59.1939V58.2601H40.1895V59.0912C40.1895 59.1866 40.2042 59.1939 40.2925 59.1939H43.0061ZM43.3888 56.5685H43.0061V53.3633H43.3888V56.5685Z" fill="#2D2D2D"/>
<path d="M56.318 56.4802C56.318 58.0177 55.2289 59.1038 53.6872 59.1038H52.4233V53.8438H53.6872C55.2289 53.8438 56.318 54.9299 56.318 56.482V56.4802ZM55.9685 56.4802C55.9685 55.1097 55.0339 54.1483 53.7038 54.1483L52.7766 54.1556V58.7901L53.7038 58.7974C55.0339 58.7974 55.9685 57.836 55.9685 56.4802Z" fill="#2D2D2D"/>
<path d="M59.5116 53.8438V59.1038H59.1604V53.8438H59.5116Z" fill="#2D2D2D"/>
<path d="M62.9005 54.5941V59.1038H62.5491V53.8438H62.9005L64.88 57.647L66.8596 53.8438H67.2109V59.1038H66.8596V54.5941L65.0695 58.025H64.6832L62.9005 54.5941Z" fill="#2D2D2D"/>
<path d="M73.3996 54.1576H70.5941V56.2418H73.0335V56.5482H70.5941V58.792H73.3996V59.1057H70.2427V53.8457H73.3996V54.1594V54.1576Z" fill="#2D2D2D"/>
<path d="M80.1279 59.1038H79.7765L76.7005 54.4694V59.1038H76.3491V53.8438H76.7005L79.7765 58.4708V53.8438H80.1279V59.1038Z" fill="#2D2D2D"/>
<path d="M84.5925 58.848C85.3523 58.8553 85.8932 58.426 85.8932 57.7619C85.8932 56.2904 83.1759 56.9161 83.1759 55.074C83.1759 54.2796 83.8474 53.7769 84.7029 53.7843C85.3523 53.7916 85.9373 54.1842 86.1563 54.8337L85.827 54.9511C85.6669 54.4484 85.2143 54.098 84.701 54.098C84.0369 54.0906 83.5255 54.4851 83.5255 55.074C83.5255 56.6482 86.2427 56.0061 86.2427 57.7619C86.2427 58.6003 85.5639 59.1672 84.5907 59.1599C83.9118 59.1525 83.3194 58.7232 82.9404 58.0517L83.2403 57.8848C83.5328 58.4242 84.0075 58.8462 84.5925 58.8462V58.848Z" fill="#2D2D2D"/>
<path d="M89.5158 53.8438V59.1038H89.1646V53.8438H89.5158Z" fill="#2D2D2D"/>
<path d="M97.4949 56.472C97.4949 58.0535 96.4352 59.1598 94.9303 59.1598C93.4254 59.1598 92.3657 58.0517 92.3657 56.472C92.3657 54.8923 93.4254 53.7842 94.9303 53.7842C96.4352 53.7842 97.4949 54.8923 97.4949 56.472ZM97.1435 56.472C97.1435 55.074 96.231 54.0961 94.9303 54.0961C93.6296 54.0961 92.7171 55.0721 92.7171 56.472C92.7171 57.8719 93.6296 58.8479 94.9303 58.8479C96.231 58.8479 97.1435 57.8719 97.1435 56.472Z" fill="#2D2D2D"/>
<path d="M103.961 59.1038H103.61L100.534 54.4694V59.1038H100.182V53.8438H100.534L103.61 58.4708V53.8438H103.961V59.1038Z" fill="#2D2D2D"/>
<path d="M108.322 56.5389L108.474 53.8438H111.068V54.1501H108.818L108.701 56.1316C108.993 55.928 109.357 55.7959 109.687 55.7959C110.688 55.7959 111.381 56.4802 111.381 57.4562C111.381 58.4323 110.688 59.1607 109.687 59.1607C108.897 59.1607 108.219 58.6359 108.042 57.8782L108.386 57.8048C108.517 58.4029 109.058 58.8323 109.687 58.8323C110.483 58.8323 111.032 58.2635 111.032 57.4544C111.032 56.6453 110.483 56.1279 109.687 56.1279C109.343 56.1279 108.92 56.3242 108.671 56.6013L108.32 56.5352L108.322 56.5389Z" fill="#2D2D2D"/>
</svg>
