<svg width="114" height="60" viewBox="0 0 114 60" fill="none" xmlns="http://www.w3.org/2000/svg">
<path d="M48.0874 53.1133H47.8208V59.8356H48.0874V53.1133Z" fill="white"/>
<path d="M83.0749 22.1607C83.0749 35.02 74.1191 44.0999 61.3496 44.0999H51.3047V0.0986328H61.3496C74.1191 0.0986328 83.0749 9.17849 83.0749 22.1589V22.1607ZM80.8967 22.1607C80.8967 10.338 72.8479 1.98836 61.471 1.98836L53.4829 2.0489V42.1478L61.471 42.2083C72.8479 42.2083 80.8967 33.921 80.8967 22.1589V22.1607Z" fill="white"/>
<path d="M88.762 22.7093L89.9725 0.0986328H111.335V2.0489H92.1508L91.1224 20.0875C93.6042 18.1373 96.9322 16.919 99.8372 16.919C107.886 16.919 113.514 22.5258 113.514 30.5085C113.514 38.4912 107.886 44.5255 99.8372 44.5255C93.3613 44.5255 87.7943 40.1993 86.3428 33.9834L88.521 33.4954C89.6708 38.7371 94.3309 42.4542 99.8372 42.4542C106.615 42.4542 111.335 37.517 111.335 30.5104C111.335 23.5037 106.615 18.9922 99.8372 18.9922C96.8108 18.9922 93.1203 20.6985 90.9421 23.1368L88.7639 22.7111L88.762 22.7093Z" fill="white"/>
<path d="M1.28597 44.1957L0 34.2536V9.78621L1.28597 0V44.1957Z" fill="white"/>
<path d="M9.8629 44.1957L6.10986 35.026V8.75695L9.8629 0V44.1957Z" fill="white"/>
<path d="M19.4276 44.1957L13.5312 35.7984V8.2414L19.4276 0V44.1957Z" fill="white"/>
<path d="M30.8547 44.1957L22.4932 37.4551V6.74063L30.8547 0V44.1957Z" fill="white"/>
<path d="M43.7377 44.1957L33.2329 39.3815V4.81421L43.7377 0V44.1957Z" fill="white"/>
<path d="M0.609679 53.9082V58.5977H3.11355V58.9334H0.234375V53.9082H0.609679Z" fill="white"/>
<path d="M3.63251 56.422C3.63251 57.9851 4.14948 58.6731 5.49984 58.6731C5.92665 58.6731 6.34059 58.6053 6.72877 58.4713V56.7742H5.34162V56.4385H7.10408V58.697C6.69198 58.8548 5.99472 59.0107 5.48328 59.0107C3.83304 59.0107 3.25537 58.1282 3.25537 56.4238C3.25537 54.7194 3.95263 53.8369 5.33242 53.8369C6.11982 53.8369 6.64415 54.0607 7.03417 54.4717L6.795 54.7414C6.41234 54.3525 5.98552 54.1727 5.33242 54.1727C4.19915 54.1727 3.63067 54.868 3.63067 56.4238L3.63251 56.422Z" fill="white"/>
<path d="M8.54247 56.7611L8.33643 56.4676C9.27285 55.9594 9.8634 55.2108 9.8634 54.299V54.0421H8.52224V53.7192H11.5302V54.0421H10.2479V54.299C10.2479 55.2108 10.9636 55.9539 11.7454 56.4015L11.5541 56.6877C10.8311 56.2914 10.2865 55.7172 10.0713 55.1136C9.91675 55.6878 9.37035 56.3336 8.54431 56.7611H8.54247ZM9.91307 59.0325C9.91307 59.1279 9.92779 59.1352 10.0161 59.1352H13.2614V59.4728H9.83948C9.61136 59.4728 9.53777 59.3627 9.53777 59.1352V57.3849H9.91307V59.0325ZM13.1142 57.739H12.7315V55.2016H11.4124V54.8567H12.7315V53.3633H13.1142V57.739Z" fill="white"/>
<path d="M14.294 57.8491L14.0732 57.5629C15.0097 56.9226 15.6517 55.9887 15.6517 54.9741V54.099H14.3106V53.7761H17.3038V54.099H16.0362V54.9741C16.0362 55.9667 16.6415 56.8492 17.5779 57.4895L17.3572 57.7757C16.6194 57.2968 16.0068 56.5189 15.8449 55.9594C15.683 56.5189 15.0851 57.3409 14.2958 57.8491H14.294ZM19.6918 55.8273H18.6965V59.5113H18.3138V53.3633H18.6965V55.4805H19.6918V55.8254V55.8273Z" fill="white"/>
<path d="M26.5902 56.194V56.5242H21.1851V56.194H26.5902ZM25.823 53.7887H24.9749V55.1941H25.8892V55.517H21.8492V55.1941H22.7856V53.7887H21.9081V53.4658H25.823V53.7887ZM25.7421 58.4965H22.4085V59.1662C22.4085 59.2469 22.4158 59.2542 22.4821 59.2542H25.8892V59.5845H22.3349C22.1288 59.5845 22.0332 59.5111 22.0332 59.2689V58.1736H25.3668V57.5113H22.0552V57.1884H25.7421V58.4965ZM23.1536 55.1941H24.5996V53.7887H23.1536V55.1941Z" fill="white"/>
<path d="M27.5701 55.9145V57.4226C27.5701 57.518 27.5848 57.5253 27.6732 57.5253H29.0897C29.5993 57.5253 29.9084 57.4593 30.2396 57.3052V53.445H30.6002V55.5549H31.5954V53.3643H31.9634V59.5123H31.5954V55.9016H30.6002V59.3068H30.2396V57.5859C29.9526 57.7547 29.6122 57.8501 28.9941 57.8501H27.4965C27.2684 57.8501 27.1948 57.74 27.1948 57.5125V55.5934H28.9131V54.0706H27.2169V53.7477H29.2884V55.9163H27.5701V55.9145Z" fill="white"/>
<path d="M37.2901 53.7744V55.8403C37.2901 56.598 37.2092 57.2823 36.9369 57.9795H38.1971V58.3171H32.792V57.9795H36.545C36.7658 57.4566 36.8983 56.5888 36.8983 55.9724V54.112H33.653V53.7744H37.2883H37.2901Z" fill="white"/>
<path d="M38.913 56.5263L38.729 56.2768C39.5845 55.7539 40.2854 55.0347 40.2854 54.1449V53.5339H40.6681V54.1449C40.6681 55.0053 41.3175 55.631 42.1509 56.1373L41.9669 56.3868C41.2881 56.0419 40.6166 55.3649 40.4767 54.9154C40.3369 55.3631 39.6433 56.1502 38.913 56.5263ZM43.389 59.5113H40.1143C39.8862 59.5113 39.8126 59.4012 39.8126 59.1737V57.0418H40.1879V57.9463H43.0045V57.0418H43.3872V59.5131L43.389 59.5113ZM43.0064 59.1939V58.2601H40.1897V59.0912C40.1897 59.1866 40.2045 59.1939 40.2928 59.1939H43.0064ZM43.389 56.5685H43.0064V53.3633H43.389V56.5685Z" fill="white"/>
<path d="M56.3185 56.4802C56.3185 58.0177 55.2294 59.1038 53.6877 59.1038H52.4238V53.8438H53.6877C55.2294 53.8438 56.3185 54.9299 56.3185 56.482V56.4802ZM55.969 56.4802C55.969 55.1097 55.0344 54.1483 53.7043 54.1483L52.7771 54.1556V58.7901L53.7043 58.7974C55.0344 58.7974 55.969 57.836 55.969 56.4802Z" fill="white"/>
<path d="M59.5118 53.8438V59.1038H59.1606V53.8438H59.5118Z" fill="white"/>
<path d="M62.9007 54.5941V59.1038H62.5493V53.8438H62.9007L64.8803 57.647L66.8598 53.8438H67.2112V59.1038H66.8598V54.5941L65.0697 58.025H64.6834L62.9007 54.5941Z" fill="white"/>
<path d="M73.3996 54.1576H70.5941V56.2418H73.0335V56.5482H70.5941V58.792H73.3996V59.1057H70.2427V53.8457H73.3996V54.1594V54.1576Z" fill="white"/>
<path d="M80.1279 59.1038H79.7765L76.7005 54.4694V59.1038H76.3491V53.8438H76.7005L79.7765 58.4708V53.8438H80.1279V59.1038Z" fill="white"/>
<path d="M84.593 58.848C85.3528 58.8553 85.8937 58.426 85.8937 57.7619C85.8937 56.2904 83.1764 56.9161 83.1764 55.074C83.1764 54.2796 83.8479 53.7769 84.7034 53.7843C85.3528 53.7916 85.9378 54.1842 86.1568 54.8337L85.8274 54.9511C85.6674 54.4484 85.2148 54.098 84.7015 54.098C84.0374 54.0906 83.526 54.4851 83.526 55.074C83.526 56.6482 86.2432 56.0061 86.2432 57.7619C86.2432 58.6003 85.5644 59.1672 84.5912 59.1599C83.9123 59.1525 83.3199 58.7232 82.9409 58.0517L83.2408 57.8848C83.5333 58.4242 84.008 58.8462 84.593 58.8462V58.848Z" fill="white"/>
<path d="M89.5158 53.8438V59.1038H89.1646V53.8438H89.5158Z" fill="white"/>
<path d="M97.4954 56.472C97.4954 58.0535 96.4357 59.1598 94.9308 59.1598C93.4259 59.1598 92.3662 58.0517 92.3662 56.472C92.3662 54.8923 93.4259 53.7842 94.9308 53.7842C96.4357 53.7842 97.4954 54.8923 97.4954 56.472ZM97.144 56.472C97.144 55.074 96.2315 54.0961 94.9308 54.0961C93.6301 54.0961 92.7176 55.0721 92.7176 56.472C92.7176 57.8719 93.6301 58.8479 94.9308 58.8479C96.2315 58.8479 97.144 57.8719 97.144 56.472Z" fill="white"/>
<path d="M103.961 59.1038H103.61L100.534 54.4694V59.1038H100.183V53.8438H100.534L103.61 58.4708V53.8438H103.961V59.1038Z" fill="white"/>
<path d="M108.322 56.5389L108.474 53.8438H111.068V54.1501H108.818L108.701 56.1316C108.993 55.928 109.357 55.7959 109.687 55.7959C110.688 55.7959 111.381 56.4802 111.381 57.4562C111.381 58.4323 110.688 59.1607 109.687 59.1607C108.897 59.1607 108.219 58.6359 108.042 57.8782L108.386 57.8048C108.517 58.4029 109.058 58.8323 109.687 58.8323C110.483 58.8323 111.032 58.2635 111.032 57.4544C111.032 56.6453 110.483 56.1279 109.687 56.1279C109.343 56.1279 108.92 56.3242 108.671 56.6013L108.32 56.5352L108.322 56.5389Z" fill="white"/>
</svg>
