<svg width="27" height="28" viewBox="0 0 27 28" fill="none" xmlns="http://www.w3.org/2000/svg">
<path d="M13.6666 24.4674C7.78659 24.4674 2.99992 19.6807 2.99992 13.8007C2.99992 7.92074 7.78659 3.13407 13.6666 3.13407C19.5466 3.13407 24.3333 7.92074 24.3333 13.8007C24.3333 19.6807 19.5466 24.4674 13.6666 24.4674ZM13.6666 0.467407C6.29325 0.467407 0.333252 6.42741 0.333252 13.8007C0.333252 21.1741 6.29325 27.1341 13.6666 27.1341C21.0399 27.1341 26.9999 21.1741 26.9999 13.8007C26.9999 6.42741 21.0399 0.467407 13.6666 0.467407ZM17.1199 8.46741L13.6666 11.9207L10.2133 8.46741L8.33325 10.3474L11.7866 13.8007L8.33325 17.2541L10.2133 19.1341L13.6666 15.6807L17.1199 19.1341L18.9999 17.2541L15.5466 13.8007L18.9999 10.3474L17.1199 8.46741Z" fill="#3E3E3E"/>
</svg>
