<svg width="101" height="100" viewBox="0 0 101 100" fill="none" xmlns="http://www.w3.org/2000/svg">
<path fill-rule="evenodd" clip-rule="evenodd" d="M65.2341 2.95349V10.0321C62.1632 10.1563 59.7027 12.7054 59.7027 15.8205V17.4632C59.7027 20.1871 61.5841 22.4783 64.1098 23.0938V24.458C64.1098 26.8461 63.2415 29.1501 61.6668 30.9439L56.3745 36.9587C54.3599 39.2527 53.2505 42.1988 53.2505 45.2533V50.8463C52.9748 50.8368 52.7004 50.832 52.4284 50.832C49.4103 50.832 46.4146 51.4275 43.6504 52.5664V51.8459C43.6504 48.4373 44.4034 45.1452 45.8303 42.1611C46.2551 41.539 46.6128 40.8783 46.8997 40.1879C47.8129 38.6891 48.9095 37.2884 50.1777 36.0143L51.4525 34.7336C51.8227 34.3616 51.8227 33.7603 51.4525 33.3883L50.8748 32.8079C50.502 32.4334 49.8959 32.4334 49.5232 32.8079L48.2547 34.0823C48.0574 34.2805 47.8637 34.4816 47.6737 34.6855C47.3982 32.208 46.3037 29.9137 44.5236 28.1252C40.5853 24.1685 24.826 20.9088 23.042 20.5504L22.4439 20.4302C21.7768 20.2962 21.1881 20.8839 21.3209 21.5512L21.4418 22.1581C21.7986 23.9504 25.0431 39.7835 28.9813 43.7401C31.0567 45.8252 33.8165 46.974 36.7516 46.9742C36.7519 46.9742 36.7522 46.974 36.7524 46.9738C36.7527 46.9736 36.753 46.9735 36.7533 46.9735C38.4846 46.9734 40.155 46.5736 41.6598 45.8178C41.1757 47.782 40.9315 49.7983 40.9315 51.8459V52.5609C38.1602 51.4127 35.2169 50.832 32.1535 50.832C28.8948 50.832 25.7418 51.4998 22.7838 52.8175C19.9273 54.0896 17.3915 55.9019 15.2471 58.2037C10.823 62.9529 8.62334 69.1558 9.0532 75.6709C9.4256 81.3236 11.8835 86.6536 15.9735 90.6787C20.0614 94.7016 25.4162 97.0626 31.0511 97.327H31.066C31.4165 97.3398 31.7789 97.3527 32.1471 97.3527C32.9429 97.3527 33.7409 97.3128 34.5233 97.2344C39.6774 96.702 44.9045 96.702 50.0621 97.2344C50.84 97.312 51.6384 97.3519 52.4334 97.352C52.4338 97.352 52.4341 97.3523 52.4341 97.3527C52.4341 97.3531 52.4344 97.3534 52.4348 97.3534C52.8027 97.3534 53.1649 97.3405 53.5151 97.327H53.5314C53.656 97.3211 53.7832 97.3137 53.914 97.305C54.0052 97.334 54.1024 97.3497 54.2033 97.3497H83.4938L83.4941 97.3496L83.4944 97.3493L83.4945 97.349C83.4945 97.3486 83.4948 97.3483 83.4952 97.3483C87.6332 97.3479 91 93.9651 91 89.8077V45.2533C91 42.1988 89.8899 39.2534 87.8747 36.958L82.5844 30.9453C81.009 29.1501 80.1408 26.8461 80.1408 24.458V23.0934C82.6658 22.4774 84.5465 20.1866 84.5465 17.4632V15.8205C84.5465 12.7056 82.0863 10.1567 79.0158 10.0321V2.95349C79.0158 2.42689 78.5889 2 78.0623 2H66.1876C65.661 2 65.2341 2.42689 65.2341 2.95349ZM44.4391 39.0096C44.112 39.5632 43.8058 40.1303 43.5209 40.7103C43.2484 41.0983 42.9409 41.4655 42.5998 41.8081C41.0379 43.3774 38.961 44.2418 36.7521 44.2418C34.5432 44.2418 32.4663 43.3774 30.9043 41.8081C28.6142 39.508 26.207 30.8398 24.8724 25.1237C24.7137 24.4438 25.3196 23.8391 25.9992 23.9992C31.6887 25.3404 40.3106 27.7579 42.5998 30.0579C44.1618 31.6272 45.0222 33.7138 45.0222 35.933C45.0222 37.0038 44.8219 38.0438 44.4391 39.0096ZM63.269 94.6174H83.4945C86.1332 94.6174 88.2804 92.4602 88.2804 89.8091V45.2547C88.2804 42.8666 87.4122 40.5626 85.8367 38.7674L80.5465 32.7547C78.5313 30.4593 77.4212 27.5139 77.4212 24.4594V24.2107C77.4212 23.6841 76.9943 23.2572 76.4677 23.2572H67.7828C67.2563 23.2572 66.8294 23.6841 66.8294 24.2107V24.4594C66.8294 27.5139 65.72 30.46 63.7054 32.754L58.4131 38.7688C56.8384 40.5626 55.9701 42.8666 55.9701 45.2547V50.2787C55.9701 50.7491 56.3138 51.1471 56.7759 51.2353C61.9263 52.2177 66.576 54.9208 70.0313 58.9804C73.5406 63.1033 75.4734 68.2426 75.5766 73.6321C75.5813 73.8809 75.5822 74.1301 75.5791 74.3799C75.5739 74.809 75.5572 75.2394 75.5287 75.6709C75.169 81.1141 72.8566 86.298 69.0163 90.2668C67.3185 92.0215 65.3755 93.485 63.269 94.6174ZM67.9537 10.0266H76.2962V4.73232H67.9537V10.0266ZM78.8405 20.5234C80.4925 20.4911 81.8269 19.1305 81.8269 17.4632V15.8205C81.8269 14.1329 80.46 12.7597 78.7803 12.7597H65.4689C63.7892 12.7597 62.4223 14.1329 62.4223 15.8205V17.4632C62.4223 19.1305 63.7566 20.4911 65.4086 20.5234H78.8405Z" fill="url(#paint0_linear_1412_5854)"/>
<path d="M42.42 94.2802C45.1173 94.2802 47.8138 94.4176 50.4925 94.693C51.1807 94.762 51.8895 94.7969 52.5976 94.7969C52.9165 94.7969 53.2374 94.7855 53.5769 94.7734C53.9021 94.7577 54.2523 94.7314 54.6465 94.6923C64.4811 93.7073 72.392 85.5395 73.0446 75.6921C73.7826 64.5751 65.7002 55.0003 54.6451 53.8951C53.9612 53.8303 53.268 53.7969 52.5919 53.7969C49.2628 53.7969 45.9677 54.6096 43.0627 56.1475L42.425 56.4849L41.7874 56.1475C38.8332 54.5883 35.625 53.7969 32.2503 53.7969C26.6018 53.7969 21.1454 56.1653 17.2803 60.2944C13.3633 64.4797 11.4162 69.9482 11.7969 75.6928C12.4737 85.9131 21.0251 94.293 31.2646 94.7734C31.6041 94.7855 31.9258 94.7969 32.2439 94.7969C32.9513 94.7969 33.6608 94.762 34.3526 94.693C37.0284 94.4183 39.7242 94.2802 42.42 94.2802Z" fill="white"/>
<defs>
<linearGradient id="paint0_linear_1412_5854" x1="34.3921" y1="20.1484" x2="34.3921" y2="46.9742" gradientUnits="userSpaceOnUse">
<stop stop-color="#9461F5"/>
<stop offset="1" stop-color="#4B27E7"/>
</linearGradient>
</defs>
</svg>
