<svg width="32" height="33" viewBox="0 0 32 33" fill="none" xmlns="http://www.w3.org/2000/svg">
<path d="M13.4442 22.7744L7.27257 16.6013L9.3293 14.5446L13.4442 18.6581L21.6711 10.4297L23.7293 12.4879L13.4442 22.7715V22.7744Z" fill="white"/>
<path fill-rule="evenodd" clip-rule="evenodd" d="M0 16.5C0 7.66364 7.16364 0.5 16 0.5C24.8364 0.5 32 7.66364 32 16.5C32 25.3364 24.8364 32.5 16 32.5C7.16364 32.5 0 25.3364 0 16.5ZM16 29.5909C14.2809 29.5909 12.5786 29.2523 10.9903 28.5944C9.40206 27.9365 7.95893 26.9723 6.74333 25.7567C5.52773 24.5411 4.56346 23.0979 3.90558 21.5097C3.2477 19.9214 2.90909 18.2191 2.90909 16.5C2.90909 14.7809 3.2477 13.0786 3.90558 11.4903C4.56346 9.90206 5.52773 8.45893 6.74333 7.24333C7.95893 6.02773 9.40206 5.06346 10.9903 4.40558C12.5786 3.7477 14.2809 3.40909 16 3.40909C19.4719 3.40909 22.8016 4.78831 25.2567 7.24333C27.7117 9.69835 29.0909 13.0281 29.0909 16.5C29.0909 19.9719 27.7117 23.3016 25.2567 25.7567C22.8016 28.2117 19.4719 29.5909 16 29.5909Z" fill="white"/>
</svg>
