<svg width="30" height="30" viewBox="0 0 30 30" fill="none" xmlns="http://www.w3.org/2000/svg">
<path d="M10 16.25V5.625C10 5.12772 10.1975 4.65081 10.5492 4.29917C10.9008 3.94754 11.3777 3.75 11.875 3.75C12.3723 3.75 12.8492 3.94754 13.2008 4.29917C13.5525 4.65081 13.75 5.12772 13.75 5.625V15M13.75 14.375V11.875C13.75 11.3777 13.9475 10.9008 14.2992 10.5492C14.6508 10.1975 15.1277 10 15.625 10C16.1223 10 16.5992 10.1975 16.9508 10.5492C17.3025 10.9008 17.5 11.3777 17.5 11.875V15M17.5 13.125C17.5 12.6277 17.6975 12.1508 18.0492 11.7992C18.4008 11.4475 18.8777 11.25 19.375 11.25C19.8723 11.25 20.3492 11.4475 20.7008 11.7992C21.0525 12.1508 21.25 12.6277 21.25 13.125V15" stroke="#555555" stroke-width="1.8" stroke-linecap="round" stroke-linejoin="round"/>
<path d="M21.25 14.375C21.25 13.8777 21.4475 13.4008 21.7992 13.0492C22.1508 12.6975 22.6277 12.5 23.125 12.5C23.6223 12.5 24.0992 12.6975 24.4508 13.0492C24.8025 13.4008 25 13.8777 25 14.375V20C25 21.9891 24.2098 23.8968 22.8033 25.3033C21.3968 26.7098 19.4891 27.5 17.5 27.5H15H15.26C14.0179 27.5002 12.7952 27.1919 11.7017 26.6029C10.6082 26.0138 9.67815 25.1623 8.995 24.125L8.75 23.75C8.36 23.1513 6.99125 20.765 4.6425 16.59C4.40306 16.1644 4.3391 15.6622 4.46423 15.1902C4.58935 14.7182 4.89369 14.3136 5.3125 14.0625C5.7586 13.7948 6.28134 13.6839 6.7977 13.7473C7.31406 13.8107 7.79443 14.0448 8.1625 14.4125L10 16.25M6.25 3.75L5 2.5M5 8.75H3.75M17.5 3.75L18.75 2.5M18.75 7.5H20" stroke="#555555" stroke-width="1.8" stroke-linecap="round" stroke-linejoin="round"/>
</svg>
