<svg width="120" height="121" viewBox="0 0 120 121" fill="none" xmlns="http://www.w3.org/2000/svg">
<path d="M0 32.6462C0 14.9731 14.3269 0.64624 32 0.64624H120V120.646H32C14.3269 120.646 0 106.319 0 88.6462V32.6462Z" fill="#895CDF"/>
<path d="M0.5 32.6462C0.5 15.2493 14.603 1.14624 32 1.14624H119.5V120.146H32C14.603 120.146 0.5 106.043 0.5 88.6462V32.6462Z" stroke="white" stroke-opacity="0.2"/>
<path fill-rule="evenodd" clip-rule="evenodd" d="M52.0563 46.2739C51.2195 47.1107 51.2195 48.4675 52.0563 49.3043L63.3982 60.6462L52.0563 71.9882C51.2195 72.825 51.2195 74.1818 52.0563 75.0186C52.8931 75.8554 54.2499 75.8554 55.0868 75.0186L67.9439 62.1615C68.7807 61.3246 68.7807 59.9678 67.9439 59.131L55.0868 46.2739C54.2499 45.437 52.8931 45.437 52.0563 46.2739Z" fill="white"/>
<g style="mix-blend-mode:overlay">
<rect width="62.405" height="1.03343" transform="matrix(-4.37114e-08 -1 -1 4.37114e-08 1.03345 91.0513)" fill="url(#paint0_linear_325_350)"/>
</g>
<defs>
<linearGradient id="paint0_linear_325_350" x1="62.0575" y1="0" x2="-0.156875" y2="0" gradientUnits="userSpaceOnUse">
<stop stop-color="white" stop-opacity="0"/>
<stop offset="0.492063" stop-color="white"/>
<stop offset="1" stop-color="white" stop-opacity="0"/>
</linearGradient>
</defs>
</svg>
