<svg width="61" height="16" viewBox="0 0 61 16" fill="none" xmlns="http://www.w3.org/2000/svg">
<path d="M21.9592 2.66895H19.5713V13.0116H26.9071V10.998H21.9592V2.66895Z" fill="white"/>
<path d="M38.4421 2.8167V4.33519H40.5341V4.72462C40.5341 6.2884 39.9032 7.11557 38.2006 7.65595L38.8436 9.10198C40.0149 8.82727 41.1651 8.13896 41.636 7.19708C42.1402 8.13896 43.2451 8.79406 44.2655 9.03557L45.0806 7.38123C43.5983 7.05821 42.5326 6.25217 42.5326 4.71255V4.33217H44.5885V2.8167H38.4421ZM47.9696 2.6084H46.0496V4.79406H44.2474V6.36689H46.0496V10.3578H47.7402C47.8791 9.81746 47.9696 8.90878 47.9696 8.25368V2.6084ZM48.1658 11.7827H42.5115C42.3636 11.7827 42.3153 11.7465 42.3153 11.5865V9.34651H40.3983V12.3684C40.3983 13.0235 40.7304 13.3344 41.3885 13.3344H48.1689V11.7797L48.1658 11.7827ZM49.2557 2.80462V4.31104H51.4413V5.03859C51.4413 6.95859 51.0489 8.16613 49.0624 9.03859L49.8081 10.3729C50.9462 9.94727 52.0149 9.14123 52.51 8.11783C53.0021 9.08387 54.0375 9.87783 55.0368 10.2673L55.9334 8.70651C54.0013 7.98198 53.3341 6.85293 53.3341 5.02651V4.31104H55.4594V2.80462H49.2557ZM60.3772 5.46123H58.4692V2.6084H56.6307V13.3344H58.2398C58.3907 12.7005 58.4692 11.6137 58.4692 10.7654V7.00387H60.3772V5.46123Z" fill="white"/>
<path d="M7.99698 0C3.58038 0 0 3.58038 0 8C0 12.4196 3.58038 16 7.99698 16C12.4136 16 15.994 12.4166 15.994 8C15.994 3.5834 12.4136 0 7.99698 0ZM9.90792 10.877V11.5019H7.68V4.48906H8.31698V10.877H9.90792ZM12.7336 12.7306C11.4657 13.9955 9.78415 14.6928 7.99698 14.6928C6.20981 14.6928 4.53132 13.9955 3.26038 12.7306C1.99849 11.4657 1.30415 9.78717 1.30415 7.99698C1.30415 4.30491 4.30792 1.29811 7.99698 1.29811C8.07547 1.29811 8.23245 1.30113 8.31396 1.30415V1.92906C8.24151 1.92604 8.06943 1.92604 7.99698 1.92604C6.37585 1.92604 4.85434 2.55698 3.70717 3.70415C2.56 4.85132 1.92906 6.37585 1.92906 7.99698C1.92906 9.61811 2.56 11.1426 3.70717 12.2898C4.85434 13.437 6.37585 14.0679 7.99698 14.0679C11.206 14.0679 13.8415 11.5623 14.0528 8.40453V8.31396H9.91094V7.69509H14.6868V7.99698C14.6868 9.78717 13.9925 11.4657 12.7306 12.7306M6.40604 5.44302C6.40604 5.97132 5.97736 6.40302 5.44604 6.40302C4.91472 6.40302 4.48906 5.97132 4.48906 5.44302C4.48906 4.91472 4.92075 4.48302 5.44604 4.48302C5.97132 4.48302 6.40604 4.91472 6.40604 5.44302Z" fill="white"/>
<path d="M32.1627 9.06861H34.1068V10.8769C33.7506 11.0128 33.0502 11.1516 32.3861 11.1516C30.2367 11.1516 29.5182 10.0588 29.5182 7.83993C29.5182 5.62106 30.2004 4.47691 32.3499 4.47691C33.5453 4.47691 34.2276 4.85427 34.7891 5.56974L36.2744 4.20521C35.3687 2.9071 33.7808 2.51465 32.2985 2.51465C28.9536 2.51465 27.1967 4.34106 27.1967 7.82182C27.1967 11.3026 28.7846 13.1652 32.2834 13.1652C33.8865 13.1652 35.4563 12.7546 36.3106 12.1569V7.13955H32.1657V9.06861H32.1627Z" fill="white"/>
</svg>
