<svg width="220" height="31" viewBox="0 0 220 31" fill="none" xmlns="http://www.w3.org/2000/svg">
<path d="M198.593 15.6953H169.399V16.095H198.593V15.6953Z" fill="white"/>
<path d="M184.194 1.29688H183.794V30.4908H184.194V1.29688Z" fill="white"/>
<path d="M197.824 11.2177L170.054 20.2246L170.177 20.6048L197.947 11.5979L197.824 11.2177Z" fill="white"/>
<path d="M179.672 1.94973L179.292 2.07324L188.313 29.8383L188.694 29.7148L179.672 1.94973Z" fill="white"/>
<path d="M195.684 7.14646L172.072 24.3145L172.307 24.6377L195.919 7.46973L195.684 7.14646Z" fill="white"/>
<path d="M175.577 3.96917L175.254 4.2041L192.413 27.8225L192.737 27.5875L175.577 3.96917Z" fill="white"/>
<path d="M192.419 3.97454L175.251 27.5869L175.575 27.822L192.743 4.20958L192.419 3.97454Z" fill="white"/>
<path d="M172.301 7.15223L172.066 7.47559L195.684 24.6353L195.919 24.312L172.301 7.15223Z" fill="white"/>
<path d="M188.295 1.94116L179.288 29.7109L179.668 29.8342L188.675 2.06447L188.295 1.94116Z" fill="white"/>
<path d="M170.174 11.1951L170.05 11.5752L197.815 20.5966L197.939 20.2165L170.174 11.1951Z" fill="white"/>
<path d="M184.194 1.29688H183.794V30.4908H184.194V1.29688Z" fill="white"/>
<path d="M198.593 15.6953H169.399V16.095H198.593V15.6953Z" fill="white"/>
<path d="M80.9805 11.4841V10.4429C80.9805 5.35442 85.9413 0.645508 89.8206 0.645508V3.85644C86.6097 4.27292 84.1074 7.10767 84.1074 10.4429V11.4841H87.2344V14.611H84.1074V30.2458H80.9805V14.611H77.8535V11.4841H80.9805Z" fill="white"/>
<path d="M118.984 15.8938C116.983 23.9547 108.952 30.4908 101.049 30.4908C93.1458 30.4908 88.3597 23.9547 90.3648 15.8938C92.3666 7.83293 100.397 1.29688 108.3 1.29688C116.203 1.29688 120.99 7.83293 118.984 15.8938ZM116.983 15.8938C118.944 7.99079 115.028 1.58237 108.23 1.58237C101.432 1.58237 94.3314 7.99079 92.3666 15.8938C90.4051 23.7969 94.3214 30.2053 101.119 30.2053C107.917 30.2053 115.018 23.7969 116.983 15.8938Z" fill="white"/>
<path d="M157.687 18.0365L147.54 1.50488H151.178L159.309 14.4158L167.441 1.50488H171.098L160.915 18.0365V30.2521H157.687V18.0365Z" fill="white"/>
<path d="M136.859 29.866C136.994 29.9332 137.172 30.0037 137.39 30.0776C137.612 30.1515 137.887 30.1884 138.223 30.1884H138.324V30.269C137.844 30.3228 137.407 30.3496 137.021 30.3496C136.698 30.3496 136.406 30.3362 136.137 30.3093C135.869 30.2825 135.623 30.2422 135.395 30.1884C135.167 30.1347 134.962 30.0709 134.774 29.997C134.586 29.9231 134.418 29.8425 134.273 29.7551C134.125 29.6678 133.991 29.5805 133.87 29.4932C133.749 29.4058 133.642 29.3152 133.548 29.2211C132.906 28.5259 132.476 27.6056 132.265 26.4636C132.05 25.3216 131.875 24.0789 131.734 22.7422C131.593 21.4054 131.297 20.0888 130.841 18.789C130.8 18.668 130.733 18.5035 130.639 18.2986C130.545 18.0903 130.417 17.8653 130.26 17.6168C130.098 17.3682 129.897 17.1197 129.658 16.8644C129.218 16.411 128.788 16.0718 128.375 15.8501C127.962 15.6284 127.62 15.5109 127.351 15.4974H125.504V29.1976C125.504 29.1976 125.52 29.3051 125.554 29.4797C125.588 29.6544 125.692 29.8156 125.866 29.96C125.974 30.0406 126.078 30.091 126.179 30.1112C126.28 30.1313 126.357 30.1414 126.411 30.1414H127.314V30.2422H120.916V30.1414H121.718C122.024 30.1414 122.246 30.0877 122.38 29.9802C122.595 29.7787 122.706 29.5671 122.723 29.3387V2.38165C122.709 2.1667 122.595 1.9551 122.38 1.74014C122.246 1.65953 122.024 1.60579 121.718 1.57892H120.916V1.47816H127.116C127.196 1.46473 127.358 1.45801 127.596 1.45801C127.982 1.45801 128.52 1.50839 129.202 1.60915C129.883 1.70991 130.606 1.94166 131.368 2.30104C132.13 2.66378 132.846 3.21125 133.514 3.94681C133.806 4.24238 134.162 4.77977 134.576 5.56235C134.989 6.34493 135.224 7.32567 135.277 8.50122C135.277 8.66244 135.254 8.94793 135.207 9.36441C135.16 9.77753 135.046 10.2578 134.864 10.7986C134.683 11.3393 134.394 11.8935 133.991 12.4544C133.027 13.63 131.942 14.4193 130.73 14.8223C129.521 15.222 128.567 15.437 127.872 15.4638C128.285 15.4907 128.762 15.5847 129.296 15.746C129.964 15.934 130.518 16.149 130.962 16.3875C131.415 16.6696 131.811 16.945 132.144 17.2204C132.476 17.4958 132.805 17.8317 133.128 18.2348C133.917 19.2793 134.438 20.3877 134.693 21.5632C134.948 22.7388 135.103 23.8875 135.163 25.0026C135.224 26.121 135.355 27.1085 135.553 27.9717C135.754 28.8349 136.188 29.4663 136.856 29.866H136.859ZM125.504 15.4034H127.19C127.952 15.4168 128.748 15.1884 129.578 14.7216C130.448 14.1203 131.103 13.2504 131.543 12.1152C131.983 10.98 132.204 9.77417 132.204 8.50458C132.204 7.23499 131.983 6.02921 131.543 4.89397C131.103 3.75872 130.444 2.88882 129.578 2.28761C128.721 1.79388 127.898 1.55877 127.109 1.58564H125.504V15.4067V15.4034Z" fill="white"/>
<path d="M215.853 1.58611L215.88 1.48535H219.94L219.914 1.58611H218.701C218.661 1.58611 218.587 1.59619 218.479 1.61634C218.372 1.63649 218.254 1.69359 218.123 1.78764C217.952 1.92198 217.831 2.05633 217.757 2.19068L212.131 24.3817L212.081 24.5832C211.665 26.2122 210.67 27.6699 209.102 28.9495C207.587 30.0814 206.099 30.6457 204.645 30.6457C204.551 30.6457 204.443 30.639 204.326 30.6255C202.831 30.518 201.689 29.8698 200.903 28.6842C200.336 27.7941 200.104 26.763 200.201 25.5908C200.282 24.9023 200.342 24.4925 200.376 24.3582L205.965 2.55342C205.985 2.47281 205.998 2.34854 205.998 2.1806C205.998 2.01267 205.945 1.86824 205.827 1.74733C205.713 1.66672 205.505 1.61298 205.202 1.58611H204.393L204.42 1.48535H210.865L210.838 1.58611H210.029C209.713 1.61298 209.475 1.66672 209.32 1.74733C209.052 1.94885 208.884 2.16381 208.81 2.39556L203.16 24.4421C202.824 25.7487 202.878 26.8772 203.325 27.8277C203.768 28.7782 204.467 29.3593 205.424 29.5776C205.642 29.6179 205.867 29.6381 206.096 29.6381C206.499 29.6381 206.892 29.5843 207.268 29.4768C207.648 29.3694 207.987 29.2384 208.289 29.0839C208.591 28.9294 208.843 28.7883 209.045 28.6607C209.246 28.533 209.374 28.4491 209.424 28.4088C209.673 28.2207 209.908 28.0259 210.12 27.8244C211.026 26.8134 211.624 25.7352 211.917 24.5899L211.967 24.3884L217.583 2.24106C217.576 1.99923 217.542 1.84473 217.479 1.77756C217.465 1.77756 217.455 1.76412 217.448 1.73725C217.421 1.68352 217.206 1.63649 216.797 1.59619H215.846L215.853 1.58611Z" fill="white"/>
<path d="M7.92182 1.52246H16.3018L24.1242 30.2529H18.935L12.1101 5.59322L5.28524 30.2529H0.059082L7.92182 1.52246Z" fill="white"/>
<path d="M50.5576 29.7485C50.5811 29.9231 50.534 30.0776 50.4232 30.1885C50.3124 30.3195 50.178 30.4068 50 30.4303H49.9328C49.775 30.4303 49.6406 30.3866 49.5096 30.2758C49.3988 30.165 49.3316 30.034 49.3081 29.8795C48.7271 25.7348 46.9167 22.3358 43.8771 19.6623C40.8139 16.9887 37.1932 15.652 33.0385 15.652H27.3623V29.8156C27.3623 29.9903 27.3186 30.1213 27.1843 30.2556C27.0734 30.3665 26.9156 30.4303 26.7376 30.4303C26.5596 30.4303 26.4252 30.3631 26.2909 30.2556C26.18 30.1246 26.1129 29.9937 26.1129 29.8156V2.10293C26.1129 1.92827 26.18 1.79728 26.2909 1.66293C26.4252 1.5521 26.5596 1.48828 26.7376 1.48828H37.3545C39.3428 1.48828 41.0423 2.19025 42.4496 3.57068C43.8569 4.95111 44.5723 6.61703 44.5723 8.56844C44.5723 10.2344 44.0584 11.682 43.0072 12.9516C41.9794 14.201 40.6594 15.034 39.0305 15.4303C45.5564 17.9527 49.3988 22.7086 50.5609 29.7451L50.5576 29.7485ZM33.0352 14.4025H37.3477C38.9801 14.4025 40.3874 13.8315 41.5495 12.6929C42.7116 11.5543 43.3162 10.1705 43.3162 8.5718C43.3162 6.97306 42.7116 5.58927 41.5495 4.42715C40.3874 3.28855 38.9801 2.71757 37.3477 2.71757H27.3589V14.4025H33.0352Z" fill="white"/>
<path d="M56.4285 4.98165V27.3137L56.4688 30.2492H52.5257L52.566 27.3137V4.98165H48.9453V1.47852H60.0492V4.97829H56.4285V4.98165Z" fill="white"/>
</svg>
