<svg width="37" height="37" viewBox="0 0 37 37" fill="none" xmlns="http://www.w3.org/2000/svg">
<path d="M16.0416 25.7181L9.09851 18.7734L11.4123 16.4596L16.0416 21.0872L25.2969 11.8303L27.6123 14.1458L16.0416 25.7149V25.7181Z" fill="#895CDF"/>
<path fill-rule="evenodd" clip-rule="evenodd" d="M0.916687 18.6589C0.916687 8.71803 8.97578 0.658936 18.9167 0.658936C28.8576 0.658936 36.9167 8.71803 36.9167 18.6589C36.9167 28.5998 28.8576 36.6589 18.9167 36.6589C8.97578 36.6589 0.916687 28.5998 0.916687 18.6589ZM18.9167 33.3862C16.9827 33.3862 15.0676 33.0053 13.2808 32.2652C11.494 31.525 9.87049 30.4402 8.50293 29.0727C7.13538 27.7051 6.05058 26.0816 5.31046 24.2948C4.57035 22.508 4.18941 20.5929 4.18941 18.6589C4.18941 16.7249 4.57035 14.8098 5.31046 13.0231C6.05058 11.2363 7.13538 9.61273 8.50293 8.24518C9.87049 6.87763 11.494 5.79282 13.2808 5.05271C15.0676 4.31259 16.9827 3.93166 18.9167 3.93166C22.8226 3.93166 26.5685 5.48328 29.3304 8.24518C32.0923 11.0071 33.644 14.753 33.644 18.6589C33.644 22.5649 32.0923 26.3108 29.3304 29.0727C26.5685 31.8346 22.8226 33.3862 18.9167 33.3862Z" fill="#895CDF"/>
</svg>
