<svg width="101" height="100" viewBox="0 0 101 100" fill="none" xmlns="http://www.w3.org/2000/svg">
<path fill-rule="evenodd" clip-rule="evenodd" d="M39.2751 36.4438C38.8291 36.4438 38.3853 36.2684 38.0513 35.9218C37.4067 35.2475 37.43 34.176 38.1063 33.5314C38.7044 32.9459 41.5471 29.8052 38.0619 26.2186C36.221 24.3248 35.3312 22.2684 35.4137 20.1062C35.5426 16.7626 38.0492 14.516 38.1549 14.423C38.8545 13.8037 39.9239 13.8734 40.5411 14.573C41.1561 15.2705 41.0906 16.3336 40.3974 16.9529C40.3509 16.9951 38.8503 18.3964 38.789 20.2626C38.7509 21.4547 39.3216 22.6657 40.484 23.862C42.2826 25.7134 43.1745 27.7572 43.1344 29.9341C43.071 33.4215 40.5474 35.8731 40.4396 35.9767C40.112 36.2895 39.6914 36.4459 39.2709 36.4459L39.2751 36.4438ZM23.9964 88.6526H77.0015L77.0036 88.6548C80.8693 88.6548 84.1981 85.8966 84.9209 82.0986L95.6843 25.4439C95.8586 24.5263 95.2558 23.6411 94.3381 23.4671C93.4209 23.2933 92.5363 23.8956 92.3621 24.8128L87.513 50.3368C86.2905 49.3386 84.7065 48.4533 82.2811 48.4533C78.9544 48.4533 77.2129 50.1188 75.8137 51.4587L75.8135 51.4589C74.5603 52.6593 73.6557 53.5258 71.6839 53.5258C69.712 53.5258 68.8052 52.6592 67.5519 51.4587C66.1528 50.1188 64.4112 48.4533 61.0824 48.4533C57.7536 48.4533 56.0142 50.1188 54.615 51.4587C53.3617 52.6592 52.455 53.5258 50.4852 53.5258C48.5155 53.5258 47.6109 52.6593 46.3577 51.4589L46.3575 51.4587C44.9604 50.1209 43.2189 48.4533 39.8922 48.4533C36.5655 48.4533 34.824 50.1188 33.4248 51.4587L33.4246 51.4589C32.1714 52.6593 31.2668 53.5258 29.295 53.5258C27.3232 53.5258 26.4186 52.6593 25.1653 51.4589L25.1652 51.4587L25.1621 51.4558C23.7635 50.1184 22.022 48.4533 18.6978 48.4533C16.2836 48.4533 14.7042 49.3315 13.4847 50.3246L8.63793 24.8128C8.46369 23.8956 7.57912 23.2933 6.66191 23.4671C5.74418 23.6411 5.14138 24.5263 5.31573 25.4439L16.0791 82.0965C16.7998 85.8966 20.1307 88.6526 23.9964 88.6526ZM14.2266 54.2293C14.3415 54.1208 14.4558 54.0115 14.57 53.902L14.5702 53.9018C15.8235 52.7014 16.7281 51.8349 18.6999 51.8349C20.6717 51.8349 21.5763 52.7014 22.8295 53.9018L22.8297 53.902L22.8328 53.9049C24.2314 55.2423 25.9728 56.9074 29.2971 56.9074C32.6238 56.9074 34.3653 55.242 35.7645 53.902C37.0178 52.7015 37.9245 51.8349 39.8943 51.8349C41.864 51.8349 42.7686 52.7014 44.0219 53.9018L44.022 53.902L44.0244 53.9043C45.4211 55.2417 47.1604 56.9074 50.4873 56.9074C53.8161 56.9074 55.5556 55.242 56.9547 53.902L56.9549 53.9018C58.2081 52.7014 59.1127 51.8349 61.0845 51.8349C63.0565 51.8349 63.9632 52.7015 65.2165 53.902C66.6156 55.242 68.3572 56.9074 71.686 56.9074L71.6839 56.9053C75.0082 56.9053 76.7474 55.2423 78.1455 53.9053L78.1513 53.8999L78.1514 53.8997C79.4047 52.6993 80.3093 51.8328 82.2811 51.8328C84.253 51.8328 85.1597 52.6994 86.413 53.8999C86.5322 54.0135 86.6515 54.1271 86.7714 54.24L81.5984 81.4688C81.1778 83.6732 79.2461 85.2731 77.0015 85.2731H23.9964C21.7518 85.2731 19.8201 83.6732 19.4016 81.4688L14.2266 54.2293ZM48.6211 35.9218C48.955 36.2684 49.3989 36.4438 49.8448 36.4438L49.8406 36.4459C50.2612 36.4459 50.6818 36.2895 51.0094 35.9767C51.1172 35.8731 53.6407 33.4215 53.7041 29.9341C53.7443 27.7572 52.8524 25.7134 51.0538 23.862C49.8913 22.6657 49.3207 21.4547 49.3587 20.2626C49.42 18.3964 50.9206 16.9951 50.9671 16.9529C51.6604 16.3336 51.7259 15.2705 51.1108 14.573C50.4937 13.8734 49.4243 13.8037 48.7247 14.423C48.619 14.516 46.1124 16.7626 45.9834 20.1062C45.901 22.2684 46.7908 24.3248 48.6317 26.2186C52.1169 29.8052 49.2742 32.9459 48.6761 33.5314C47.9997 34.176 47.9765 35.2475 48.6211 35.9218ZM60.4125 36.4438C59.9665 36.4438 59.5227 36.2684 59.1888 35.9218C58.5441 35.2475 58.5674 34.176 59.2437 33.5314C59.8418 32.9459 62.6845 29.8052 59.1993 26.2186C57.3585 24.3248 56.4687 22.2684 56.5511 20.1062C56.68 16.7626 59.1867 14.516 59.2923 14.423C59.9919 13.8037 61.0614 13.8734 61.6785 14.573C62.2935 15.2705 62.228 16.3336 61.5348 16.9529L61.5331 16.9545C61.4636 17.0199 59.987 18.4115 59.9264 20.2626C59.8883 21.4547 60.459 22.6657 61.6214 23.862C63.42 25.7134 64.312 27.7572 64.2718 29.9341C64.2084 33.4215 61.6848 35.8731 61.5771 35.9767C61.2495 36.2895 60.8289 36.4459 60.4083 36.4459L60.4125 36.4438ZM73.9215 65.9453C74.4749 66.3945 74.8102 67.0065 74.9274 67.7812H77.8961C77.7659 66.7135 77.4241 65.7956 76.8707 65.0273C76.3238 64.2591 75.611 63.6732 74.732 63.2695C73.8531 62.8659 72.8701 62.6641 71.7828 62.6641C70.5263 62.6641 69.4 62.9538 68.4039 63.5332C67.4078 64.1061 66.6233 64.9395 66.0504 66.0332C65.484 67.127 65.2008 68.4258 65.2008 69.9297C65.2008 71.4271 65.484 72.7259 66.0504 73.8262C66.6168 74.9199 67.3948 75.7565 68.3844 76.3359C69.3805 76.9089 70.5133 77.1953 71.7828 77.1953C72.9352 77.1953 73.9541 76.9674 74.8395 76.5117C75.7249 76.0495 76.428 75.4375 76.9488 74.6758C77.4697 73.9141 77.7854 73.0872 77.8961 72.1953L74.9274 72.1758C74.7906 72.931 74.4423 73.5234 73.8824 73.9531C73.3225 74.3763 72.6357 74.5911 71.8219 74.5977C71.0927 74.5911 70.4547 74.4089 69.9078 74.0508C69.3675 73.6927 68.9443 73.1654 68.6383 72.4688C68.3388 71.7721 68.1891 70.9258 68.1891 69.9297C68.1891 68.9531 68.3388 68.1165 68.6383 67.4199C68.9378 66.7168 69.361 66.1829 69.9078 65.8184C70.4612 65.4538 71.1057 65.2682 71.8414 65.2617C72.6748 65.2682 73.3681 65.4961 73.9215 65.9453ZM61.0203 69.5195C60.4083 69.5195 59.8452 69.3698 59.3309 69.0703C58.8165 68.7708 58.4064 68.3639 58.1004 67.8496C57.7944 67.3288 57.6414 66.7591 57.6414 66.1406C57.6414 65.5286 57.7944 64.9655 58.1004 64.4512C58.4064 63.9303 58.8165 63.5202 59.3309 63.2207C59.8452 62.9147 60.4083 62.7617 61.0203 62.7617C61.6323 62.7617 62.1987 62.9147 62.7195 63.2207C63.2404 63.5202 63.6538 63.9303 63.9598 64.4512C64.2658 64.9655 64.4188 65.5286 64.4188 66.1406C64.4188 66.7591 64.2658 67.3288 63.9598 67.8496C63.6538 68.3639 63.2404 68.7708 62.7195 69.0703C62.1987 69.3698 61.6323 69.5195 61.0203 69.5195ZM59.575 66.1406C59.575 66.401 59.6401 66.6419 59.7703 66.8633C59.9005 67.0846 60.0731 67.2604 60.2879 67.3906C60.5093 67.5208 60.7469 67.5859 61.0008 67.5859C61.2677 67.5859 61.5119 67.5241 61.7332 67.4004C61.9611 67.2702 62.1401 67.0977 62.2703 66.8828C62.4005 66.6615 62.4656 66.4206 62.4656 66.1602C62.4656 65.8932 62.4005 65.6491 62.2703 65.4277C62.1466 65.2064 61.9741 65.0306 61.7527 64.9004C61.5314 64.7637 61.2873 64.6953 61.0203 64.6953C60.7599 64.6953 60.519 64.7604 60.2977 64.8906C60.0828 65.0208 59.907 65.1966 59.7703 65.418C59.6401 65.6393 59.575 65.8802 59.575 66.1406ZM47.7774 76.3457C48.6302 76.9121 49.6458 77.1953 50.8242 77.1953C52.0026 77.1953 53.015 76.9121 53.8613 76.3457C54.7142 75.7793 55.3685 74.9525 55.8242 73.8652C56.28 72.778 56.5078 71.4661 56.5078 69.9297C56.5078 68.4062 56.28 67.1009 55.8242 66.0137C55.3685 64.9199 54.7142 64.0898 53.8613 63.5234C53.0085 62.9505 51.9961 62.6641 50.8242 62.6641C49.6524 62.6641 48.64 62.9505 47.7871 63.5234C46.9343 64.0898 46.28 64.9199 45.8242 66.0137C45.3685 67.1009 45.1406 68.4062 45.1406 69.9297C45.1406 71.4596 45.3652 72.7682 45.8145 73.8555C46.2702 74.9427 46.9245 75.7728 47.7774 76.3457ZM48.8613 73.5723C48.3861 72.765 48.1485 71.5801 48.1485 70.0176C48.1485 68.403 48.3828 67.1758 48.8516 66.3359C49.3268 65.4961 49.9844 65.0729 50.8242 65.0664C51.3711 65.0729 51.8464 65.2585 52.25 65.623C52.6537 65.9876 52.9629 66.5345 53.1777 67.2637C53.3926 67.9863 53.5 68.875 53.5 69.9297C53.5065 71.5247 53.2721 72.7324 52.7969 73.5527C52.3216 74.3665 51.6641 74.7734 50.8242 74.7734C49.9909 74.7734 49.3366 74.373 48.8613 73.5723ZM38.4211 77.1953C37.2427 77.1953 36.2271 76.9121 35.3742 76.3457C34.5214 75.7728 33.8671 74.9427 33.4113 73.8555C32.9621 72.7682 32.7375 71.4596 32.7375 69.9297C32.7375 68.4062 32.9654 67.1009 33.4211 66.0137C33.8768 64.9199 34.5311 64.0898 35.384 63.5234C36.2369 62.9505 37.2492 62.6641 38.4211 62.6641C39.593 62.6641 40.6054 62.9505 41.4582 63.5234C42.3111 64.0898 42.9654 64.9199 43.4211 66.0137C43.8768 67.1009 44.1047 68.4062 44.1047 69.9297C44.1047 71.4661 43.8768 72.778 43.4211 73.8652C42.9654 74.9525 42.3111 75.7793 41.4582 76.3457C40.6119 76.9121 39.5995 77.1953 38.4211 77.1953ZM35.7453 70.0176C35.7453 71.5801 35.983 72.765 36.4582 73.5723C36.9335 74.373 37.5878 74.7734 38.4211 74.7734C39.2609 74.7734 39.9185 74.3665 40.3938 73.5527C40.869 72.7324 41.1034 71.5247 41.0969 69.9297C41.0969 68.875 40.9895 67.9863 40.7746 67.2637C40.5598 66.5345 40.2505 65.9876 39.8469 65.623C39.4432 65.2585 38.968 65.0729 38.4211 65.0664C37.5813 65.0729 36.9237 65.4961 36.4485 66.3359C35.9797 67.1758 35.7453 68.403 35.7453 70.0176ZM27.5024 77H30.4516V62.8594H27.6781L24.182 65.0859V67.6836L27.4242 65.6523H27.5024V77Z" fill="url(#paint0_linear_1412_5872)"/>
<defs>
<linearGradient id="paint0_linear_1412_5872" x1="27.3168" y1="62.8594" x2="27.3168" y2="77" gradientUnits="userSpaceOnUse">
<stop stop-color="#9461F5"/>
<stop offset="1" stop-color="#4B27E7"/>
</linearGradient>
</defs>
</svg>
