<svg width="101" height="100" viewBox="0 0 101 100" fill="none" xmlns="http://www.w3.org/2000/svg">
<g id="Frame 1000003272">
<g id="Group 481852">
<path id="Vector" d="M66.7371 36.9099C66.7371 34.2751 64.6212 32.1362 62.0037 32.0785C59.9225 26.5092 54.5088 22.6925 48.5013 22.6925H46.3278V20.6112H47.0888C48.68 20.6112 49.9715 19.3198 49.9715 17.7286V9.8358C49.9715 8.24456 48.68 6.95312 47.0888 6.95312H38.6541C37.0628 6.95312 35.7714 8.24456 35.7714 9.8358V17.7286C35.7714 19.3198 37.0628 20.6112 38.6541 20.6112H39.4151V22.6925H37.2416C31.2398 22.6925 25.8146 26.5092 23.7391 32.0785C21.1217 32.1304 19.0058 34.2751 19.0058 36.9099C19.0058 39.2276 20.6489 41.1705 22.8282 41.6375V90.4296C20.6431 90.8966 19.0058 92.8396 19.0058 95.1572C19.0058 97.8266 21.1735 99.9944 23.8429 99.9944H61.9057C64.5751 99.9944 66.7429 97.8266 66.7429 95.1572C66.7429 92.8396 65.0997 90.8966 62.9204 90.4296V41.6375C65.1055 41.1705 66.7429 39.2276 66.7429 36.9099H66.7371ZM25.1286 90.3201V41.7413H60.6028V90.3201H25.1286ZM38.0718 17.7228V9.83003C38.0718 9.51294 38.3312 9.2535 38.6483 9.2535H47.083C47.4001 9.2535 47.6596 9.51294 47.6596 9.83003V17.7228C47.6596 18.0399 47.4001 18.2993 47.083 18.2993H38.6483C38.3312 18.2993 38.0718 18.0399 38.0718 17.7228ZM41.7155 20.6055H44.0216V22.6868H41.7155V20.6055ZM37.2358 24.9929H48.4955C53.2462 24.9929 57.5529 27.8352 59.5016 32.0728H26.2355C28.1842 27.841 32.4967 24.9929 37.2416 24.9929H37.2358ZM21.3061 36.9099C21.3061 35.5147 22.4419 34.3789 23.8371 34.3789H61.9C63.2952 34.3789 64.431 35.5147 64.431 36.9099C64.431 38.3051 63.2952 39.4409 61.9 39.4409H23.8371C22.4419 39.4409 21.3061 38.3051 21.3061 36.9099ZM64.431 95.1572C64.431 96.5524 63.2952 97.6882 61.9 97.6882H23.8371C22.4419 97.6882 21.3061 96.5524 21.3061 95.1572C21.3061 93.762 22.4419 92.6262 23.8371 92.6262H61.9C63.2952 92.6262 64.431 93.762 64.431 95.1572Z" fill="url(#paint0_linear_1412_5840)"/>
<path id="Vector_2" d="M51.8394 74.4957C54.0879 72.2183 55.4831 69.0878 55.4831 65.6401C55.4831 58.6871 49.8273 53.0312 42.8743 53.0312C39.4266 53.0312 36.2961 54.4265 34.0187 56.675C34.0015 56.6922 33.9784 56.7038 33.9611 56.7211C33.9438 56.7384 33.9323 56.7614 33.915 56.7787C31.6607 59.056 30.2713 62.1866 30.2713 65.6343C30.2713 72.5873 35.9271 78.2431 42.8801 78.2431C46.3278 78.2431 49.4526 76.8537 51.7357 74.5994C51.753 74.5821 51.776 74.5706 51.7991 74.5475C51.8164 74.5302 51.8337 74.5072 51.851 74.4841L51.8394 74.4957ZM53.177 65.6401C53.177 68.0673 52.3295 70.2927 50.9228 72.0569L36.4633 57.5974C38.2275 56.1907 40.4529 55.3432 42.8801 55.3432C48.559 55.3432 53.1828 59.967 53.1828 65.6458L53.177 65.6401ZM32.5716 65.6401C32.5716 63.2129 33.4192 60.9874 34.8259 59.2232L49.2854 73.6827C47.5212 75.0895 45.2958 75.937 42.8686 75.937C37.1897 75.937 32.5659 71.3132 32.5659 65.6343L32.5716 65.6401Z" fill="url(#paint1_linear_1412_5840)"/>
<path id="Vector_3" d="M77.9219 12.8171C77.9219 12.1829 77.403 11.6641 76.7688 11.6641L70.1041 11.6756C69.4699 11.6756 68.951 12.1945 68.951 12.8287C68.951 13.4629 69.4699 13.9817 70.1041 13.9817L76.7688 13.9702C77.403 13.9702 77.9219 13.4513 77.9219 12.8171Z" fill="url(#paint2_linear_1412_5840)"/>
<path id="Vector_4" d="M91.8106 12.8171C91.8106 12.1829 91.2917 11.6641 90.6576 11.6641L83.9928 11.6756C83.3586 11.6756 82.8397 12.1945 82.8397 12.8287C82.8397 13.4629 83.3586 13.9817 83.9928 13.9817L90.6576 13.9702C91.2917 13.9702 91.8106 13.4513 91.8106 12.8171Z" fill="url(#paint3_linear_1412_5840)"/>
<path id="Vector_5" d="M56.2269 11.2293C56.3249 11.2293 56.4287 11.2178 56.5267 11.189L62.9608 9.45361C63.5777 9.28641 63.9409 8.65222 63.7737 8.0411C63.6065 7.42421 62.9723 7.06099 62.3612 7.22818L55.9213 8.96355C55.3044 9.13075 54.9412 9.76494 55.1084 10.3761C55.2468 10.8892 55.7138 11.2293 56.2211 11.2293H56.2269Z" fill="url(#paint4_linear_1412_5840)"/>
<path id="Vector_6" d="M68.5301 6.78232C68.6685 7.29543 69.1355 7.63559 69.6428 7.63559C69.7408 7.63559 69.8446 7.62406 69.9426 7.59523L76.3825 5.85986C76.9994 5.69266 77.3626 5.05848 77.1954 4.44735C77.0283 3.83046 76.3941 3.46724 75.7829 3.63443L69.3488 5.3698C68.7319 5.537 68.3687 6.17119 68.5359 6.78232H68.5301Z" fill="url(#paint5_linear_1412_5840)"/>
<path id="Vector_7" d="M81.9461 3.18857C82.0845 3.70168 82.5515 4.04184 83.0588 4.04184C83.1568 4.04184 83.2606 4.03031 83.3586 4.00148L89.7928 2.26611C90.4096 2.09891 90.7729 1.47049 90.6057 0.853598C90.4385 0.236705 89.8043 -0.126512 89.1932 0.0406835L82.7533 1.77605C82.1364 1.94325 81.7731 2.57167 81.9403 3.18857H81.9461Z" fill="url(#paint6_linear_1412_5840)"/>
<path id="Vector_8" d="M55.9271 16.6798L62.367 18.4152C62.465 18.444 62.5688 18.4555 62.6668 18.4555C63.1741 18.4555 63.6411 18.1154 63.7795 17.6022C63.9467 16.9853 63.5835 16.3569 62.9666 16.1897L56.5324 14.4544C55.9213 14.2872 55.2871 14.6561 55.1199 15.2673C54.9527 15.8842 55.316 16.5126 55.9329 16.6798H55.9271Z" fill="url(#paint7_linear_1412_5840)"/>
<path id="Vector_9" d="M69.343 20.2813L75.7772 22.0167C75.8752 22.0455 75.979 22.0571 76.077 22.0571C76.5843 22.0571 77.0513 21.7169 77.1897 21.2038C77.3569 20.5869 76.9937 19.9585 76.3768 19.7913L69.9369 18.0559C69.3257 17.8887 68.6916 18.2577 68.5244 18.8688C68.3572 19.4857 68.7204 20.1141 69.3373 20.2813H69.343Z" fill="url(#paint8_linear_1412_5840)"/>
<path id="Vector_10" d="M82.759 23.8755L89.1989 25.6109C89.2969 25.6397 89.4007 25.6512 89.4987 25.6512C90.0061 25.6512 90.4731 25.3111 90.6114 24.7979C90.7786 24.181 90.4154 23.5526 89.7985 23.3854L83.3644 21.6501C82.7475 21.4829 82.1191 21.8461 81.9519 22.463C81.7847 23.0799 82.1479 23.7083 82.7648 23.8755H82.759Z" fill="url(#paint9_linear_1412_5840)"/>
</g>
</g>
<defs>
<linearGradient id="paint0_linear_1412_5840" x1="42.8743" y1="6.95312" x2="42.8743" y2="99.9944" gradientUnits="userSpaceOnUse">
<stop stop-color="#9461F5"/>
<stop offset="1" stop-color="#4B27E7"/>
</linearGradient>
<linearGradient id="paint1_linear_1412_5840" x1="42.8772" y1="53.0312" x2="42.8772" y2="78.2431" gradientUnits="userSpaceOnUse">
<stop stop-color="#9461F5"/>
<stop offset="1" stop-color="#4B27E7"/>
</linearGradient>
<linearGradient id="paint2_linear_1412_5840" x1="73.4364" y1="11.6641" x2="73.4364" y2="13.9817" gradientUnits="userSpaceOnUse">
<stop stop-color="#9461F5"/>
<stop offset="1" stop-color="#4B27E7"/>
</linearGradient>
<linearGradient id="paint3_linear_1412_5840" x1="87.3252" y1="11.6641" x2="87.3252" y2="13.9817" gradientUnits="userSpaceOnUse">
<stop stop-color="#9461F5"/>
<stop offset="1" stop-color="#4B27E7"/>
</linearGradient>
<linearGradient id="paint4_linear_1412_5840" x1="59.4411" y1="7.1875" x2="59.4411" y2="11.2293" gradientUnits="userSpaceOnUse">
<stop stop-color="#9461F5"/>
<stop offset="1" stop-color="#4B27E7"/>
</linearGradient>
<linearGradient id="paint5_linear_1412_5840" x1="72.8657" y1="3.59375" x2="72.8657" y2="7.63559" gradientUnits="userSpaceOnUse">
<stop stop-color="#9461F5"/>
<stop offset="1" stop-color="#4B27E7"/>
</linearGradient>
<linearGradient id="paint6_linear_1412_5840" x1="86.273" y1="0" x2="86.273" y2="4.04184" gradientUnits="userSpaceOnUse">
<stop stop-color="#9461F5"/>
<stop offset="1" stop-color="#4B27E7"/>
</linearGradient>
<linearGradient id="paint7_linear_1412_5840" x1="59.4497" y1="14.4141" x2="59.4497" y2="18.4555" gradientUnits="userSpaceOnUse">
<stop stop-color="#9461F5"/>
<stop offset="1" stop-color="#4B27E7"/>
</linearGradient>
<linearGradient id="paint8_linear_1412_5840" x1="72.857" y1="18.0156" x2="72.857" y2="22.0571" gradientUnits="userSpaceOnUse">
<stop stop-color="#9461F5"/>
<stop offset="1" stop-color="#4B27E7"/>
</linearGradient>
<linearGradient id="paint9_linear_1412_5840" x1="86.2817" y1="21.6094" x2="86.2817" y2="25.6512" gradientUnits="userSpaceOnUse">
<stop stop-color="#9461F5"/>
<stop offset="1" stop-color="#4B27E7"/>
</linearGradient>
</defs>
</svg>
