<svg width="101" height="100" viewBox="0 0 101 100" fill="none" xmlns="http://www.w3.org/2000/svg">
<path fill-rule="evenodd" clip-rule="evenodd" d="M38.8328 11.0306C38.9376 9.02194 41.3101 7.83314 42.9655 9.14542C43.099 9.25122 43.2344 9.35852 43.3719 9.46735C47.5498 12.776 53.506 17.4929 58.0765 24.1856L58.0768 24.186C62.3666 30.4723 65.4604 39.9241 66.6089 44.3041C68.3857 42.7485 70.8018 40.0428 71.9672 35.6034C72.2631 34.4763 73.2035 33.8263 74.1069 33.6712C75.0255 33.5134 76.1878 33.8329 76.7834 34.9425C78.2238 37.6256 78.9673 39.5598 80.8088 45.0938C83.2683 52.4854 83.5 57.2839 83.5 61.708C83.5 80.148 68.5998 94.5022 50.5 94.5022C32.4437 94.5022 17.5 80.8622 17.5 62.38C17.5 58.0201 17.9854 51.7812 20.9289 46.9932L20.9291 46.9927C23.0713 43.5108 24.5332 41.9415 26.5115 39.8176C27.1238 39.1604 27.7855 38.45 28.5321 37.6134L28.5324 37.6131C29.0528 37.0303 29.4936 36.5454 29.8781 36.1224C30.7344 35.1802 31.3118 34.5451 31.8686 33.8201C32.6427 32.8122 33.3667 31.6357 34.654 29.2141L34.6541 29.2139C36.836 25.1112 38.5102 17.2098 38.8328 11.0306ZM37.303 30.6223C39.668 26.175 41.3441 18.3007 41.7774 12.0316L37.303 30.6223ZM41.7774 12.0316C45.9407 15.3319 51.4039 19.7344 55.5991 25.8775C59.6963 31.8816 62.7338 41.2426 63.785 45.3666C64.0371 46.3556 64.8163 46.9907 65.5471 47.2684C66.2775 47.5459 67.3479 47.6037 68.2072 46.8846C70.1813 45.2326 73.0767 42.2377 74.6121 37.2652C75.6414 39.302 76.3609 41.2286 77.9622 46.041C80.2907 53.0386 80.5 57.497 80.5 61.708C80.5 78.4472 66.9872 91.5022 50.5 91.5022C33.9693 91.5022 20.5 79.077 20.5 62.38C20.5 58.1047 21.0058 52.5963 23.4845 48.5643C25.4606 45.3525 26.7081 44.0124 28.6274 41.9507C29.2538 41.2779 29.9518 40.5281 30.77 39.6114C31.2248 39.1021 31.6333 38.6527 32.0059 38.2426C32.9155 37.2418 33.6116 36.4758 34.2478 35.6475C35.1773 34.4373 35.9947 33.0833 37.3029 30.6225" fill="url(#paint0_linear_1412_5866)"/>
<path fill-rule="evenodd" clip-rule="evenodd" d="M50.5973 43.3024C51.3977 43.6292 52.1334 44.3841 52.2619 45.4495C52.9415 51.0832 56.1188 55.1279 59.4264 59.27C59.4837 59.3418 59.5412 59.4137 59.5987 59.4856C62.7589 63.4413 66.1297 67.6606 66.1297 73.2926C66.1297 81.195 58.3392 86.2 50.6297 86.2C47.8794 86.2 43.8206 85.3613 40.4034 83.0989C36.9174 80.7909 34.0926 76.9816 34.0926 71.2186C34.0926 57.1332 43.3959 47.9611 47.8543 43.7793C48.689 42.9964 49.7883 42.972 50.5973 43.3024ZM49.374 46.4701C44.8417 50.7771 37.0926 59.0037 37.0926 71.2186C37.0926 75.8259 39.2802 78.7573 42.0596 80.5975C44.9078 82.4832 48.3676 83.2 50.6297 83.2C57.4386 83.2 63.1297 78.8717 63.1297 73.2926C63.1297 68.7868 60.4332 65.3385 57.0821 61.142L57.0293 61.0758C53.8994 57.1564 50.3262 52.6818 49.374 46.4701Z" fill="url(#paint1_linear_1412_5866)"/>
<defs>
<linearGradient id="paint0_linear_1412_5866" x1="50.5" y1="8.59375" x2="50.5" y2="94.5022" gradientUnits="userSpaceOnUse">
<stop stop-color="#9461F5"/>
<stop offset="1" stop-color="#4B27E7"/>
</linearGradient>
<linearGradient id="paint1_linear_1412_5866" x1="50.1111" y1="43.1016" x2="50.1111" y2="86.2" gradientUnits="userSpaceOnUse">
<stop stop-color="#9461F5"/>
<stop offset="1" stop-color="#4B27E7"/>
</linearGradient>
</defs>
</svg>
