<svg width="21" height="22" viewBox="0 0 21 22" fill="none" xmlns="http://www.w3.org/2000/svg">
<path fill-rule="evenodd" clip-rule="evenodd" d="M15.1667 0.5C15.4761 0.5 15.7728 0.622916 15.9916 0.841709C16.2104 1.0605 16.3333 1.35725 16.3333 1.66667V2.83333H18.6667C19.2855 2.83333 19.879 3.07917 20.3166 3.51675C20.7542 3.95434 21 4.54783 21 5.16667V19.1667C21 19.7855 20.7542 20.379 20.3166 20.8166C19.879 21.2542 19.2855 21.5 18.6667 21.5H2.33333C1.71449 21.5 1.121 21.2542 0.683417 20.8166C0.245833 20.379 0 19.7855 0 19.1667V5.16667C0 4.54783 0.245833 3.95434 0.683417 3.51675C1.121 3.07917 1.71449 2.83333 2.33333 2.83333H4.66667V1.66667C4.66667 1.35725 4.78958 1.0605 5.00838 0.841709C5.22717 0.622916 5.52391 0.5 5.83333 0.5C6.14275 0.5 6.4395 0.622916 6.65829 0.841709C6.87708 1.0605 7 1.35725 7 1.66667V2.83333H14V1.66667C14 1.35725 14.1229 1.0605 14.3417 0.841709C14.5605 0.622916 14.8572 0.5 15.1667 0.5ZM5.845 15.6667H5.83333C5.53597 15.667 5.24996 15.7809 5.03374 15.985C4.81751 16.1891 4.68739 16.4681 4.66997 16.765C4.65254 17.0618 4.74912 17.3541 4.93998 17.5821C5.13083 17.8102 5.40155 17.9567 5.69683 17.9918L5.845 18C6.15442 18 6.45117 17.8771 6.66996 17.6583C6.88875 17.4395 7.01167 17.1428 7.01167 16.8333C7.01167 16.5239 6.88875 16.2272 6.66996 16.0084C6.45117 15.7896 6.15442 15.6667 5.845 15.6667ZM10.5117 15.6667H10.5C10.2026 15.667 9.91663 15.7809 9.7004 15.985C9.48418 16.1891 9.35406 16.4681 9.33663 16.765C9.31921 17.0618 9.41579 17.3541 9.60664 17.5821C9.7975 17.8102 10.0682 17.9567 10.3635 17.9918L10.5117 18C10.8211 18 11.1178 17.8771 11.3366 17.6583C11.5554 17.4395 11.6783 17.1428 11.6783 16.8333C11.6783 16.5239 11.5554 16.2272 11.3366 16.0084C11.1178 15.7896 10.8211 15.6667 10.5117 15.6667ZM15.1783 15.6667H15.1667C14.8693 15.667 14.5833 15.7809 14.3671 15.985C14.1508 16.1891 14.0207 16.4681 14.0033 16.765C13.9859 17.0618 14.0825 17.3541 14.2733 17.5821C14.4642 17.8102 14.7349 17.9567 15.0302 17.9918L15.1783 18C15.4878 18 15.7845 17.8771 16.0033 17.6583C16.2221 17.4395 16.345 17.1428 16.345 16.8333C16.345 16.5239 16.2221 16.2272 16.0033 16.0084C15.7845 15.7896 15.4878 15.6667 15.1783 15.6667ZM5.845 11H5.83333C5.53597 11.0003 5.24996 11.1142 5.03374 11.3183C4.81751 11.5225 4.68739 11.8014 4.66997 12.0983C4.65254 12.3951 4.74912 12.6874 4.93998 12.9155C5.13083 13.1435 5.40155 13.29 5.69683 13.3252L5.845 13.3333C6.15442 13.3333 6.45117 13.2104 6.66996 12.9916C6.88875 12.7728 7.01167 12.4761 7.01167 12.1667C7.01167 11.8572 6.88875 11.5605 6.66996 11.3417C6.45117 11.1229 6.15442 11 5.845 11ZM10.5117 11H10.5C10.2026 11.0003 9.91663 11.1142 9.7004 11.3183C9.48418 11.5225 9.35406 11.8014 9.33663 12.0983C9.31921 12.3951 9.41579 12.6874 9.60664 12.9155C9.7975 13.1435 10.0682 13.29 10.3635 13.3252L10.5117 13.3333C10.8211 13.3333 11.1178 13.2104 11.3366 12.9916C11.5554 12.7728 11.6783 12.4761 11.6783 12.1667C11.6783 11.8572 11.5554 11.5605 11.3366 11.3417C11.1178 11.1229 10.8211 11 10.5117 11ZM15.1783 11H15.1667C14.8693 11.0003 14.5833 11.1142 14.3671 11.3183C14.1508 11.5225 14.0207 11.8014 14.0033 12.0983C13.9859 12.3951 14.0825 12.6874 14.2733 12.9155C14.4642 13.1435 14.7349 13.29 15.0302 13.3252L15.1783 13.3333C15.4878 13.3333 15.7845 13.2104 16.0033 12.9916C16.2221 12.7728 16.345 12.4761 16.345 12.1667C16.345 11.8572 16.2221 11.5605 16.0033 11.3417C15.7845 11.1229 15.4878 11 15.1783 11ZM18.6667 5.16667H2.33333V7.5H18.6667V5.16667Z" fill="#431ABC"/>
</svg>
