<svg width="21" height="24" viewBox="0 0 21 24" fill="none" xmlns="http://www.w3.org/2000/svg">
<path d="M12.2807 23.2434C15.2719 20.6108 20.5937 15.2325 20.5937 10.2968C20.5937 7.56595 19.5088 4.94691 17.5778 3.01587C15.6468 1.08484 13.0277 0 10.2968 0C7.56595 0 4.94691 1.08484 3.01588 3.01587C1.08484 4.94691 4.06935e-08 7.56595 0 10.2968C0 15.2325 5.32003 20.6108 8.31298 23.2434C8.85891 23.7307 9.56508 24 10.2968 24C11.0286 24 11.7348 23.7307 12.2807 23.2434ZM6.86456 10.2968C6.86456 9.38654 7.22618 8.51353 7.86985 7.86985C8.51353 7.22618 9.38655 6.86456 10.2968 6.86456C11.2071 6.86456 12.0802 7.22618 12.7238 7.86985C13.3675 8.51353 13.7291 9.38654 13.7291 10.2968C13.7291 11.2071 13.3675 12.0802 12.7238 12.7238C12.0802 13.3675 11.2071 13.7291 10.2968 13.7291C9.38655 13.7291 8.51353 13.3675 7.86985 12.7238C7.22618 12.0802 6.86456 11.2071 6.86456 10.2968Z" fill="#431ABC"/>
</svg>
